<svg id="visual" viewBox="0 0 1366 768" width="1366" height="768" xmlns="http://www.w3.org/2000/svg" xmlns:xlink="http://www.w3.org/1999/xlink" version="1.1"><rect x="0" y="0" width="1366" height="768" fill="#182d49"></rect><path d="M0 620L38 610C76 600 152 580 227.8 576.7C303.7 573.3 379.3 586.7 455.2 605.3C531 624 607 648 683 643.3C759 638.7 835 605.3 910.8 592.3C986.7 579.3 1062.3 586.7 1138.2 590C1214 593.3 1290 592.7 1328 592.3L1366 592L1366 769L1328 769C1290 769 1214 769 1138.2 769C1062.3 769 986.7 769 910.8 769C835 769 759 769 683 769C607 769 531 769 455.2 769C379.3 769 303.7 769 227.8 769C152 769 76 769 38 769L0 769Z" fill="#0066FF" stroke-linecap="round" stroke-linejoin="miter"></path></svg>